<?xml version="1.0" encoding="UTF-8"?>
<svg id="_图层_1" data-name="图层 1" xmlns="http://www.w3.org/2000/svg" viewBox="0 0 100 100">
  <path d="m47.65,34.88h-11.55v-11.55c0-2.13-1.72-3.85-3.85-3.85s-3.85,1.72-3.85,3.85v11.55h-11.55c-2.13,0-3.85,1.72-3.85,3.85s1.72,3.85,3.85,3.85h11.55v11.55c0,2.13,1.72,3.85,3.85,3.85s3.85-1.72,3.85-3.85v-11.55h11.55c2.13,0,3.85-1.72,3.85-3.85s-1.72-3.85-3.85-3.85Z"/>
  <path d="m85.24,28.6h-23.79c-1.66,0-3-1.34-3-3s1.34-3,3-3h23.79c1.66,0,3,1.34,3,3s-1.34,3-3,3Z"/>
  <path d="m85.24,54.56h-23.79c-1.66,0-3-1.34-3-3s1.34-3,3-3h23.79c1.66,0,3,1.34,3,3s-1.34,3-3,3Z"/>
  <path d="m85.24,80.52H14.76c-1.66,0-3-1.34-3-3s1.34-3,3-3h70.48c1.66,0,3,1.34,3,3s-1.34,3-3,3Z"/>
</svg>